<svg xmlns="http://www.w3.org/2000/svg" width="32" height="32" fill="none" viewBox="0 0 32 32"><path fill="#2D3440" d="M25.3243 18.4851C24.9176 9.40971 17.0094.62094 16.6569.23882h-.0451l-.1085-.12418-.1175-.07643h-.5061L15.708 0h-.0452l-.1627.11464-.0994.08597h-.0452C15.003.62094 7.09482 9.41926 6.67004 18.4851a1.49539 1.49539 0 0 0 0 .2006v1.0412c.34344 9.8396 9.03796 12.247 9.11026 12.2661h.2259a.91883.91883 0 0 0 .226 0c.0813 0 8.7667-2.4742 9.1011-12.2661v-1.0412c0-.0669-.009-.1338-.009-.2006ZM9.05605 15.132c1.80525 1.64 3.84635 2.9654 6.04635 3.9262v4.3467c-2.2143-1.156-5.62157-3.2099-6.62477-5.0154.08139-1.1024.26606-2.1936.55131-3.2575h.02711Zm1.80755-4.8721c1.1821 1.3052 2.6325 2.3054 4.2388 2.9232v3.7639c-2.0194-.9009-3.8593-2.1974-5.42273-3.8212a28.86554 28.86554 0 0 1 1.18393-2.8659Zm11.4872 2.8659c-1.5627 1.6247-3.4028 2.9213-5.4227 3.8212v-3.7639c1.5934-.623 3.0309-1.6229 4.2026-2.9232.4559.918.8633 1.862 1.2201 2.8277v.0382Zm-5.4227-1.9679V3.5155c1.2079 1.56579 2.3102 3.21935 3.2988 4.94846-.8717 1.17144-2.014 2.08604-3.3169 2.65574l.0181.0382Zm0 12.2661v-4.3658c2.2084-.9522 4.2587-2.2712 6.0735-3.9071.2768 1.0679.4524 2.1624.5242 3.2671-.9942 1.7768-4.4015 3.8212-6.6158 4.9675l.0181.0383Zm-1.8076-12.2661c-1.3089-.577-2.4524-1.50568-3.3169-2.69394.9868-1.74552 2.0892-3.41509 3.2988-4.99622l.0181 7.69016ZM8.66742 21.4083c1.97668 1.6417 4.13808 3.0182 6.43498 4.0982v4.2033c-1.6431-.7056-3.0929-1.8351-4.2169-3.2852-1.1241-1.4501-1.88664-3.1747-2.21808-5.0163ZM16.91 29.7194V25.497c2.2988-1.0722 4.4607-2.4459 6.435-4.0887-.3174 1.8486-1.0746 3.5815-2.2003 5.0354-1.1258 1.454-2.5831 2.5813-4.2347 3.2757Z"/></svg>