<svg xmlns="http://www.w3.org/2000/svg" width="32" height="32" fill="none" viewBox="0 0 32 32"><path fill="#2D3440" d="M19.1889 5.06946c0-1.3445-.4917-2.63394-1.3668-3.58465C16.9469.53411 15.7599 0 14.5222 0c-1.2376 0-2.4246.5341-3.2998 1.48481-.8751.95071-1.36681 2.24015-1.36681 3.58465V19.8243c-1.19637 1.3264-1.86308 3.1117-1.85553 4.9687-.0032 1.1893.26536 2.3608.7816 3.4096.51625 1.0488 1.26404 1.9419 2.17634 2.5994.9122.6575 1.9605 1.0587 3.0506 1.1677 1.0902.1091 2.1883-.0776 3.1957-.5431s1.8927-1.1954 2.5766-2.1241c.6838-.9288 1.1447-2.0274 1.3414-3.1973.1967-1.17.123-2.3746-.2144-3.506-.3375-1.1314-.9281-2.1541-1.719-2.9764V5.06946Zm.167 19.72354c.0094.8795-.1883 1.7469-.5744 2.5201-.386.7731-.9475 1.4262-1.6312 1.8973-.6838.471-1.467.7445-2.2753.7943-.8083.0497-1.615-.1257-2.3433-.5098-.7284-.3841-1.3543-.9641-1.8183-1.6848-.464-.7208-.75073-1.5584-.83294-2.4334-.08221-.875.04282-1.7582.36324-2.566.3204-.8077.8255-1.5131 1.4674-2.0491V5.06946c0-.80991.2962-1.58665.8234-2.15934.5272-.57269 1.2422-.89443 1.9877-.89443.7456 0 1.4606.32174 1.9878.89443.5272.57269.8234 1.34943.8234 2.15934V20.5701c.6261.474 1.1372 1.1057 1.4894 1.8412.3523.7354.5352 1.5527.5331 2.3817Z"/><path fill="#2D3440" d="M15.5335 21.6384V5.14001c0-.2673-.0977-.52364-.2717-.71265s-.41-.29519-.6561-.29519c-.246 0-.482.10618-.656.29519-.174.18901-.2717.44535-.2717.71265V21.6384c-.619.2378-1.1408.7056-1.473 1.3208-.3322.6152-.4535 1.3382-.3425 2.0411.1111.703.4473 1.3407.9493 1.8004.5019.4598 1.1374.7119 1.7939.7119.6566 0 1.292-.2521 1.794-.7119.502-.4597.8382-1.0974.9492-1.8004.1111-.7029-.0102-1.4259-.3424-2.0411-.3323-.6152-.854-1.083-1.473-1.3208ZM26.6667 3.94068h-5.5666v2.01569h5.5666V3.94068ZM26.6667 7.97206h-5.5666v2.01569h5.5666V7.97206ZM26.6667 12.0034h-5.5666v2.0157h5.5666v-2.0157ZM26.6667 16.0348h-5.5666v2.0157h5.5666v-2.0157Z"/></svg>